<?xml version="1.0" standalone="no"?>
<!DOCTYPE svg PUBLIC "-//W3C//DTD SVG 20010904//EN"
 "http://www.w3.org/TR/2001/REC-SVG-20010904/DTD/svg10.dtd">
<svg version="1.0" xmlns="http://www.w3.org/2000/svg"
 width="512.000000pt" height="512.000000pt" viewBox="0 0 512.000000 512.000000"
 preserveAspectRatio="xMidYMid meet">
<metadata>
Created by potrace 1.11, written by Peter Selinger 2001-2013
</metadata>
<g transform="translate(0.000000,512.000000) scale(0.100000,-0.100000)"
fill="#000000" stroke="none">
<path d="M1793 5041 c246 -127 408 -253 495 -389 38 -59 79 -158 70 -167 -2
-3 -35 11 -74 29 -272 131 -505 189 -759 190 -130 0 -164 -4 -256 -27 -127
-33 -198 -61 -299 -118 -230 -130 -454 -368 -624 -663 l-29 -49 64 46 c177
129 453 263 595 291 16 3 49 10 74 16 108 23 281 31 412 17 58 -6 103 -15 236
-44 12 -3 22 -8 22 -12 0 -3 -43 -26 -94 -50 -260 -120 -470 -317 -585 -549
-30 -60 -91 -228 -91 -251 0 -6 28 5 63 24 62 36 251 130 317 158 170 73 472
153 658 173 97 11 114 12 212 19 l95 6 -86 -88 c-112 -113 -130 -134 -198
-218 -31 -38 -59 -72 -62 -75 -3 -3 -43 -57 -88 -122 -240 -341 -446 -757
-625 -1264 -26 -72 -49 -140 -51 -150 -2 -11 -21 -73 -40 -139 -46 -151 -129
-477 -146 -572 -12 -66 -16 -73 -44 -85 -140 -56 -428 -245 -559 -367 -164
-154 -317 -333 -390 -458 -5 -10 537 -12 2513 -10 l2519 2 -14 27 c-51 98
-231 276 -405 400 -414 296 -1113 557 -1694 632 -27 4 -59 9 -70 11 -11 2 -49
7 -85 10 -36 4 -76 8 -90 11 -42 7 -189 15 -325 19 -71 2 -133 4 -137 4 -4 1
-5 27 -3 59 2 31 7 109 10 172 5 107 8 156 21 320 3 36 7 94 10 130 3 36 7 81
9 100 3 19 12 98 20 175 9 77 18 147 20 155 2 8 7 38 10 65 3 28 12 84 21 125
8 41 21 109 29 150 22 121 25 130 52 230 14 52 28 105 30 118 3 12 9 22 13 22
10 0 40 86 40 115 0 29 51 159 106 268 25 51 48 94 50 96 13 14 154 -155 231
-277 48 -76 104 -186 156 -302 12 -27 70 -195 104 -300 3 -9 10 1 19 25 17 48
54 180 60 209 19 111 22 159 19 276 -4 144 -24 248 -69 360 l-25 61 32 -5 c99
-17 145 -31 242 -74 160 -70 302 -178 512 -388 89 -88 160 -156 158 -150 -2 6
-6 36 -9 66 -5 51 -15 112 -32 200 -23 121 -85 303 -139 410 -65 128 -189 280
-290 355 -22 17 -42 32 -45 35 -9 10 -104 64 -161 91 -45 22 -175 66 -246 85
-25 7 -12 27 70 108 136 135 283 198 484 208 23 2 39 6 36 11 -7 12 -134 74
-208 102 -233 87 -493 57 -674 -79 -44 -32 -47 -32 -55 2 -12 49 -69 151 -116
210 -112 139 -285 233 -509 277 -128 24 -140 26 -346 31 l-200 5 138 -70z"/>
</g>
</svg>
